PathFileType	4	(X/Y/Z)	outputs\dynamic_markers.trc
DataRate	CameraRate	NumFrames	NumMarkers	Units	OrigDataRate	OrigDataStartFrame	OrigNumFrames
360.000000	360.000000	4	48	m	360.000000	479	639
Frame#	Time	C7			CLAV			LANK			LASI			LBAK			LBHD			LELB			LFHD			LFIN			LFRM			LHEE			LIC			LKNE			LMANK			LMELB			LMKNE			LPSI			LSHO			LTHI			LTIB			LTOE			LUPA			LWRA			LWRB			RANK			RASI			RBAK			RBHD			RELB			RFHD			RFIN			RFRM			RHEE			RIC			RKNE			RMANK			RMELB			RMKNE			RPSI			RSHO			RTHI			RTIB			RTOE			RUPA			RWRA			RWRB			STRN			T10			
		X1	Y1	Z1	X2	Y2	Z2	X3	Y3	Z3	X4	Y4	Z4	X5	Y5	Z5	X6	Y6	Z6	X7	Y7	Z7	X8	Y8	Z8	X9	Y9	Z9	X10	Y10	Z10	X11	Y11	Z11	X12	Y12	Z12	X13	Y13	Z13	X14	Y14	Z14	X15	Y15	Z15	X16	Y16	Z16	X17	Y17	Z17	X18	Y18	Z18	X19	Y19	Z19	X20	Y20	Z20	X21	Y21	Z21	X22	Y22	Z22	X23	Y23	Z23	X24	Y24	Z24	X25	Y25	Z25	X26	Y26	Z26	X27	Y27	Z27	X28	Y28	Z28	X29	Y29	Z29	X30	Y30	Z30	X31	Y31	Z31	X32	Y32	Z32	X33	Y33	Z33	X34	Y34	Z34	X35	Y35	Z35	X36	Y36	Z36	X37	Y37	Z37	X38	Y38	Z38	X39	Y39	Z39	X40	Y40	Z40	X41	Y41	Z41	X42	Y42	Z42	X43	Y43	Z43	X44	Y44	Z44	X45	Y45	Z45	X46	Y46	Z46	X47	Y47	Z47	X48	Y48	Z48	

480	1.330555555555556	0.6020730137825012	1.251051902770996	0.1005056723952293	0.5453951954841614	1.135650753974915	0.2081268578767776	1.589690804481506	0.1370231658220291	0.2573202252388	0.937116801738739	0.8028750419616699	0.1833337098360062	0.8102452754974365	1.151837587356567	0.06010182201862335	0.5827454924583435	1.374189734458923	0.124502032995224	0.9961585998535156	1.388700723648071	0.3481235504150391	0.5830584764480591	1.414996862411499	0.2614702880382538	1.325600862503052	1.33608877658844	0.592954695224762	1.106638789176941	1.368410468101501	0.4609861969947815	1.507610321044922	0.1008535102009773	0.2222596853971481	0.9761670231819153	0.8835504055023193	0.1171525344252586	1.258564829826355	0.4994348287582397	0.396345853805542	1.543231964111328	0.05140459537506104	0.3160017430782318	1.030726075172424	1.355730891227722	0.279541403055191	1.182651281356812	0.3887773454189301	0.4177282452583313	0.901120662689209	0.7966514825820923	-0.03150499612092972	0.6710668802261353	1.266834259033203	0.2678325176239014	1.211822032928467	0.559705376625061	0.3342134654521942	1.337754487991333	0.427908182144165	0.3450571894645691	1.666377186775208	0.06924088299274445	0.418637216091156	0.8217011690139771	1.320798873901367	0.3297142684459686	1.224553108215332	1.305590510368347	0.5217629075050354	1.269788265228271	1.370984792709351	0.4862072765827179	0.08845590800046921	0.1006262376904488	0.07421839237213135	0.653704047203064	0.7551212906837463	0.1100124791264534	0.6748161315917969	1.097213864326477	-0.06472928076982498	0.4356744885444641	1.344547986984253	0.130632221698761	0.2905888557434082	1.213167548179626	-0.2656397819519043	0.430298238992691	1.380364179611206	0.2680399417877197	0.1477378904819489	0.8999190926551819	-0.245150089263916	0.2109301686286926	1.070986390113831	-0.2583504915237427	0.1398420333862305	0.07194450497627258	0.01717775501310825	0.6396986842155457	0.7982892990112305	0.001838606433011591	0.4204827547073364	0.4116156697273254	0.3148815631866455	0.15130615234375	0.01727904938161373	0.07977604866027832	0.3566281795501709	1.173938393592834	-0.315195620059967	0.5256044268608093	0.3194830119609833	0.3208729028701782	0.7985396385192871	0.78584885597229	-0.04856183379888535	0.4604385495185852	1.201635718345642	0.04102502763271332	0.4956827461719513	0.525454044342041	0.2049444913864136	0.3271570801734924	0.3548507988452911	0.2205590009689331	0.05987202748656273	0.06132729351520538	0.2890479564666748	0.3736686110496521	1.210520505905151	-0.09019701182842255	0.2017943114042282	0.9186768531799316	-0.2721080482006073	0.1381307542324066	0.9592666029930115	-0.3149027228355408	0.651028573513031	0.9563933610916138	0.2007069140672684	0.8211830854415894	0.9536866545677185	-0.03608373552560806	
481	1.333333333333333	0.6109523773193359	1.251869082450867	0.1002117544412613	0.5536820888519287	1.137154340744019	0.2085302174091339	1.596530318260193	0.1359760314226151	0.2463120073080063	0.9448262453079224	0.8015680313110352	0.1837098896503448	0.8179176449775696	1.151103258132935	0.0591515377163887	0.5924479961395264	1.375290989875793	0.1233673840761185	1.007588982582092	1.389208555221558	0.339783787727356	0.592590868473053	1.416460394859314	0.2603197395801544	1.342046499252319	1.330687999725342	0.5777164697647095	1.120617032051086	1.367540121078491	0.4503454566001892	1.513541221618652	0.09966757148504257	0.2135679870843887	0.9835504293441772	0.8821122646331787	0.1170663237571716	1.27022922039032	0.4992685914039612	0.3924650549888611	1.551688194274902	0.05041418224573135	0.3064253330230713	1.040431499481201	1.356117606163025	0.2703867852687836	1.194297909736633	0.3888911008834839	0.41554194688797	0.9065755009651184	0.7952009439468384	-0.0304783433675766	0.6803492307662964	1.268112063407898	0.2670676112174988	1.222837328910828	0.5592357516288757	0.3305467367172241	1.347818851470947	0.4274809062480927	0.3396908938884735	1.677616953849792	0.06828294694423676	0.4053181707859039	0.8324331641197205	1.321693420410156	0.3258893191814423	1.238050937652588	1.303030729293823	0.5092461705207825	1.284281492233276	1.366830945014954	0.472077876329422	0.09019792079925537	0.1011516824364662	0.07484156638383865	0.6603668928146362	0.754841685295105	0.1146764233708382	0.6835413575172424	1.096833348274231	-0.06434499472379684	0.4452014565467834	1.346496820449829	0.129160463809967	0.3041572868824005	1.221623420715332	-0.2665235698223114	0.4395534694194794	1.383051872253418	0.2665933668613434	0.1546072661876678	0.9127336144447327	-0.2387731224298477	0.2211810350418091	1.081732988357544	-0.2563451528549194	0.1412805318832397	0.07207171618938446	0.01775109954178333	0.6453884840011597	0.7974832057952881	0.006294006016105413	0.4276416599750519	0.4067098796367645	0.3158470094203949	0.1517701297998428	0.01699147932231426	0.08023244887590408	0.3692768216133118	1.180403113365173	-0.3161712884902954	0.5320647358894348	0.3139947354793549	0.3193870186805725	0.8038073778152466	0.784393310546875	-0.04584535956382751	0.4707777202129364	1.203550815582275	0.04046026617288589	0.5020958185195923	0.5224577188491821	0.2074533849954605	0.3326320946216583	0.3518441319465637	0.2215288728475571	0.06024610251188278	0.06122622638940811	0.2893868684768677	0.3854907751083374	1.215721249580383	-0.09071390330791473	0.2086896747350693	0.9294283986091614	-0.2668363749980927	0.1455255299806595	0.9708236455917358	-0.309912383556366	0.6583845019340515	0.9579026699066162	0.2019736021757126	0.8274255394935608	0.9517976641654968	-0.03484573215246201	
482	1.336111111111111	0.619985044002533	1.252695560455322	0.09991730004549026	0.5620279312133789	1.13880467414856	0.2090017199516296	1.602976083755493	0.1346737593412399	0.2354304492473602	0.9525328278541565	0.8001580834388733	0.1840431690216064	0.8256413340568542	1.150415182113647	0.05836660414934158	0.6022734642028809	1.376394033432007	0.1224007904529572	1.019260287284851	1.389552593231201	0.3312768638134003	0.6022732853889465	1.41823422908783	0.2592672109603882	1.35821259021759	1.324783444404602	0.5622762441635132	1.134573698043823	1.366408348083496	0.4393082559108734	1.519315719604492	0.0983143076300621	0.2049793601036072	0.9907782673835754	0.8806447982788086	0.1171609461307526	1.281982183456421	0.4991526007652283	0.3885170817375183	1.559654116630554	0.04919027537107468	0.2971253097057343	1.050136208534241	1.356212377548218	0.260821670293808	1.206012487411499	0.3891094624996185	0.4131121337413788	0.9119220972061157	0.7937178611755371	-0.02940739691257477	0.6900074481964111	1.26949405670166	0.266259491443634	1.233740568161011	0.5587494373321533	0.3267404437065125	1.357701063156128	0.4270800054073334	0.3344009518623352	1.688589096069336	0.06728065758943558	0.3922232985496521	0.8434068560600281	1.322476983070374	0.3220796287059784	1.251629948616028	1.299943804740906	0.4962195158004761	1.298928737640381	1.362226128578186	0.457549661397934	0.09190652519464493	0.1017588600516319	0.07563010603189468	0.6670984029769897	0.7546935081481934	0.1194720044732094	0.6923028826713562	1.096484661102295	-0.063808374106884	0.4549777209758759	1.348534226417542	0.127971425652504	0.3182283937931061	1.229751110076904	-0.2675281167030334	0.4489816129207611	1.38575005531311	0.2649100720882416	0.1616463512182236	0.9256837964057922	-0.2322137951850891	0.231930747628212	1.092314124107361	-0.2542432546615601	0.1428638696670532	0.07233180105686188	0.01844079606235027	0.6513333916664124	0.7966377735137939	0.01091776881366968	0.4348839223384857	0.4017656147480011	0.3166549205780029	0.152496799826622	0.01688226498663425	0.08067009598016739	0.3821889162063599	1.186331391334534	-0.3172950744628906	0.5387064814567566	0.308404803276062	0.3176637887954712	0.8088785409927368	0.7830713987350464	-0.04312700405716896	0.4812223017215729	1.205554485321045	0.03997137024998665	0.5087128281593323	0.5194432139396667	0.2099321335554123	0.3380981683731079	0.3487136363983154	0.2225582301616669	0.06060196459293365	0.06098185852169991	0.2898085117340088	0.3976377546787262	1.22072172164917	-0.09125106036663055	0.2155700623989105	0.9403178691864014	-0.2611144781112671	0.1531980484724045	0.9824581146240234	-0.3046116530895233	0.6660100221633911	0.9597062468528748	0.2035456448793411	0.833909809589386	0.9499039053916931	-0.03334112465381622	
483	1.338888888888889	0.626069962978363	1.253340244293213	0.09966194629669189	0.5677070021629333	1.139994621276855	0.2093156278133392	1.607180118560791	0.1336615681648254	0.2284005284309387	0.9577496647834778	0.7992521524429321	0.1842462420463562	0.8308372497558594	1.149833083152771	0.05768361687660217	0.6089587807655334	1.376971960067749	0.121864065527916	1.02720582485199	1.389596223831177	0.325431227684021	0.608903706073761	1.419349670410156	0.2583177089691162	1.368868708610535	1.320565462112427	0.5516729354858398	1.14397120475769	1.36540961265564	0.4317396879196167	1.522703409194946	0.09723009169101715	0.1998862624168396	0.9955914616584778	0.8797280788421631	0.1171108037233353	1.289612412452698	0.4989742040634155	0.3853102922439575	1.56486701965332	0.04835034906864166	0.2909678220748901	1.056812405586243	1.356096148490906	0.254459023475647	1.213695764541626	0.3893721401691437	0.4115141630172729	0.9154401421546936	0.7927843332290649	-0.02858316525816917	0.6964812278747559	1.27035391330719	0.2656594812870026	1.240844249725342	0.5583975911140442	0.3239201605319977	1.364269137382507	0.4266917705535889	0.3306496143341064	1.69578742980957	0.06653621792793274	0.3836324214935303	0.8508621454238892	1.323104858398438	0.3192748129367828	1.260704874992371	1.297663569450378	0.4873148798942566	1.308496475219727	1.358918786048889	0.4474831223487854	0.09313397109508514	0.1021284759044647	0.07606339454650879	0.671602725982666	0.7545874714851379	0.1227589920163155	0.6980046033859253	1.09624707698822	-0.0633372887969017	0.4614423513412476	1.349981784820557	0.1270032674074173	0.3277757167816162	1.234815955162048	-0.2681528329849243	0.4554716646671295	1.387706279754639	0.2638633251190186	0.1664403975009918	0.9343088269233704	-0.2274907827377319	0.239196389913559	1.099419593811035	-0.2526520788669586	0.1439759582281113	0.07258886843919754	0.01893860101699829	0.6551048159599304	0.7963378429412842	0.01396412961184978	0.4397572576999664	0.3983578085899353	0.3171935677528381	0.15325728058815	0.01691906340420246	0.0811731368303299	0.3909595608711243	1.189987659454346	-0.3180285096168518	0.5431168675422668	0.3046435117721558	0.316506028175354	0.812227725982666	0.7822388410568237	-0.04130708798766136	0.4881856739521027	1.206971168518066	0.03975968807935715	0.5131762027740479	0.5173423290252686	0.2115779519081116	0.3418609797954559	0.3466256260871887	0.2232386469841003	0.06079696118831635	0.06088925153017044	0.2900301814079285	0.4059226810932159	1.223836421966553	-0.09163063764572144	0.220173716545105	0.9475899934768677	-0.2572661638259888	0.1582039147615433	0.9901881217956543	-0.3007180392742157	0.6712715625762939	0.9606359004974365	0.2044494152069092	0.8381431102752686	0.9486269950866699	-0.03260749205946922	
